<svg width="21" height="22" viewBox="0 0 21 22" fill="none" xmlns="http://www.w3.org/2000/svg">
<path fill-rule="evenodd" clip-rule="evenodd" d="M9.37503 0.666504C7.90667 0.666629 6.45963 1.0179 5.15464 1.69101C3.84965 2.36411 2.72455 3.33954 1.8732 4.5359C1.02186 5.73227 0.468958 7.11488 0.260631 8.56838C0.0523045 10.0219 0.194592 11.5041 0.675624 12.8915C1.15665 14.2788 1.96248 15.531 3.02587 16.5435C4.08926 17.5561 5.37938 18.2997 6.78859 18.7122C8.1978 19.1248 9.68523 19.1944 11.1268 18.9152C12.5684 18.6359 13.9223 18.016 15.0755 17.1072L19.0319 21.0635C19.2362 21.2608 19.5098 21.37 19.7939 21.3676C20.0779 21.3651 20.3496 21.2512 20.5505 21.0503C20.7514 20.8494 20.8653 20.5777 20.8678 20.2937C20.8702 20.0096 20.761 19.736 20.5637 19.5317L16.6074 15.5753C17.6777 14.2175 18.3441 12.5858 18.5304 10.8669C18.7167 9.14797 18.4152 7.41136 17.6606 5.85577C16.906 4.30018 15.7287 2.98847 14.2634 2.07075C12.7981 1.15304 11.104 0.666388 9.37503 0.666504ZM2.33336 9.87484C2.33336 8.00727 3.07525 6.2162 4.39582 4.89563C5.71639 3.57506 7.50746 2.83317 9.37503 2.83317C11.2426 2.83317 13.0337 3.57506 14.3542 4.89563C15.6748 6.2162 16.4167 8.00727 16.4167 9.87484C16.4167 11.7424 15.6748 13.5335 14.3542 14.854C13.0337 16.1746 11.2426 16.9165 9.37503 16.9165C7.50746 16.9165 5.71639 16.1746 4.39582 14.854C3.07525 13.5335 2.33336 11.7424 2.33336 9.87484Z" fill="#4F4F4F"/>
</svg>
